<?xml version="1.0" encoding="utf-8"?>
<!-- Generator: Adobe Illustrator 19.1.1, SVG Export Plug-In . SVG Version: 6.00 Build 0)  -->
<svg version="1.1" id="Layer_1" xmlns="http://www.w3.org/2000/svg" xmlns:xlink="http://www.w3.org/1999/xlink" x="0px" y="0px"
	 viewBox="0 0 1200 1200" enable-background="new 0 0 1200 1200" xml:space="preserve">
<g>
	<g>
		<path fill="#EAEEEF" d="M265.532,1135.078h-3.927h-3.927c-13.001,0-24.771-5.27-33.291-13.79s-13.79-20.29-13.79-33.291v-488v-488
			c0-13.001,5.27-24.771,13.79-33.291s20.29-13.79,33.291-13.79h3.927h3.927c13.001,0,24.771,5.27,33.291,13.79
			c8.52,8.52,13.79,20.29,13.79,33.291v488v488c0,13.001-5.27,24.771-13.79,33.291
			C290.303,1129.809,278.533,1135.078,265.532,1135.078z"/>
		<path fill="#2E4C59" d="M261.604,1150c-18.175,0-34.657-7.394-46.595-19.332c-11.938-11.938-19.332-28.42-19.332-46.597V599.997
			V115.924c0-18.174,7.394-34.655,19.332-46.592C226.947,57.394,243.429,50,261.604,50s34.657,7.394,46.595,19.331
			c11.938,11.937,19.332,28.418,19.332,46.592v484.074v484.074c0,18.177-7.394,34.659-19.332,46.597
			C296.261,1142.606,279.78,1150,261.604,1150z M261.604,79.838c-9.949,0-18.972,4.047-25.506,10.582
			c-6.535,6.534-10.582,15.556-10.582,25.504v484.074v484.074c0,9.951,4.047,18.974,10.582,25.509
			c6.535,6.535,15.557,10.582,25.506,10.582s18.972-4.047,25.506-10.582c6.535-6.535,10.582-15.558,10.582-25.509V599.997V115.924
			c0-9.948-4.047-18.969-10.582-25.504C280.576,83.885,271.554,79.838,261.604,79.838z"/>
	</g>
	<g opacity="0.2">
		<path fill="#2E4C59" d="M265.532,374.519h-3.927h-3.927c-13.001,0-24.771-5.27-33.291-13.79c-8.52-8.52-13.79-20.29-13.79-33.291
			V222.334V117.229c0-13.001,5.27-24.771,13.79-33.291s20.29-13.79,33.291-13.79h3.927h3.927c13.001,0,24.771,5.27,33.291,13.79
			c8.52,8.52,13.79,20.29,13.79,33.291v105.105v105.105c0,13.001-5.27,24.771-13.79,33.291
			C290.303,369.249,278.533,374.519,265.532,374.519z"/>
		<path fill="#2E4C59" d="M261.604,389.437c-18.175,0-34.657-7.394-46.595-19.331c-11.938-11.937-19.332-28.418-19.332-46.592
			V222.335V121.157c0-18.177,7.394-34.659,19.332-46.597c11.938-11.938,28.419-19.332,46.595-19.332s34.657,7.394,46.595,19.332
			c11.938,11.938,19.332,28.42,19.332,46.597v101.179v101.179c0,18.174-7.394,34.655-19.332,46.592
			C296.261,382.043,279.78,389.437,261.604,389.437z M261.604,85.066c-9.949,0-18.972,4.047-25.506,10.582
			c-6.535,6.535-10.582,15.558-10.582,25.509v101.179v101.179c0,9.948,4.047,18.969,10.582,25.504
			c6.535,6.534,15.557,10.582,25.506,10.582s18.972-4.047,25.506-10.582c6.535-6.534,10.582-15.556,10.582-25.504V222.335V121.157
			c0-9.951-4.047-18.974-10.582-25.509C280.576,89.113,271.554,85.066,261.604,85.066z"/>
	</g>
	<g>
		<path fill="#EAEEEF" d="M491.128,1135.078h-3.927h-3.927c-13.001,0-24.771-5.27-33.291-13.79c-8.52-8.52-13.79-20.29-13.79-33.291
			v-488v-488c0-13.001,5.27-24.771,13.79-33.291c8.52-8.52,20.29-13.79,33.291-13.79h3.927h3.927c13.001,0,24.771,5.27,33.291,13.79
			s13.79,20.29,13.79,33.291v488v488c0,13.001-5.27,24.771-13.79,33.291S504.129,1135.078,491.128,1135.078z"/>
		<path fill="#2E4C59" d="M487.202,1150c-18.175,0-34.657-7.394-46.595-19.332c-11.938-11.938-19.332-28.42-19.332-46.597V599.997
			V115.924c0-18.174,7.394-34.655,19.332-46.592C452.545,57.394,469.027,50,487.202,50c18.175,0,34.656,7.394,46.593,19.331
			c11.937,11.937,19.33,28.418,19.33,46.592v484.074v484.074c0,18.177-7.393,34.659-19.33,46.597
			C521.859,1142.606,505.378,1150,487.202,1150z M487.202,79.838c-9.949,0-18.972,4.047-25.506,10.582
			c-6.535,6.534-10.582,15.556-10.582,25.504v484.074v484.074c0,9.951,4.047,18.974,10.582,25.509
			c6.535,6.535,15.557,10.582,25.506,10.582s18.971-4.047,25.505-10.582c6.534-6.535,10.581-15.558,10.581-25.509V599.997V115.924
			c0-9.948-4.047-18.969-10.581-25.504C506.173,83.885,497.152,79.838,487.202,79.838z"/>
	</g>
	<g opacity="0.2">
		<path fill="#2E4C59" d="M491.128,557.711h-3.927h-3.927c-13.001,0-24.771-5.27-33.291-13.79c-8.52-8.52-13.79-20.29-13.79-33.291
			V311.314V111.997c0-13.001,5.27-24.771,13.79-33.291c8.52-8.52,20.29-13.79,33.291-13.79h3.927h3.927
			c13.001,0,24.771,5.27,33.291,13.79s13.79,20.29,13.79,33.291v199.316V510.63c0,13.001-5.27,24.771-13.79,33.291
			S504.129,557.711,491.128,557.711z"/>
		<path fill="#2E4C59" d="M487.202,572.627c-18.175,0-34.657-7.394-46.595-19.331c-11.938-11.937-19.332-28.418-19.332-46.592
			v-195.39v-195.39c0-18.174,7.394-34.655,19.332-46.592C452.545,57.394,469.027,50,487.202,50c18.175,0,34.656,7.394,46.593,19.331
			c11.937,11.937,19.33,28.418,19.33,46.592v195.39v195.39c0,18.174-7.393,34.655-19.33,46.592
			C521.859,565.233,505.378,572.627,487.202,572.627z M487.202,79.838c-9.949,0-18.972,4.047-25.506,10.582
			c-6.535,6.534-10.582,15.556-10.582,25.504v195.39v195.39c0,9.948,4.047,18.969,10.582,25.504s15.557,10.582,25.506,10.582
			s18.971-4.047,25.505-10.582c6.534-6.534,10.581-15.556,10.581-25.504v-195.39v-195.39c0-9.948-4.047-18.969-10.581-25.504
			C506.173,83.885,497.152,79.838,487.202,79.838z"/>
	</g>
	<g>
		<path fill="#EAEEEF" d="M716.724,1135.078h-3.927h-3.927c-13.001,0-24.771-5.27-33.291-13.79
			c-8.52-8.52-13.789-20.29-13.789-33.291v-488v-488c0-13.001,5.27-24.771,13.789-33.291c8.52-8.52,20.29-13.79,33.291-13.79h3.927
			h3.927c13.001,0,24.771,5.27,33.291,13.79c8.52,8.52,13.79,20.29,13.79,33.291v488v488c0,13.001-5.27,24.771-13.79,33.291
			C741.495,1129.809,729.725,1135.078,716.724,1135.078z"/>
		<path fill="#2E4C59" d="M712.798,1150c-18.175,0-34.657-7.394-46.595-19.332c-11.938-11.938-19.332-28.42-19.332-46.597V599.997
			V115.924c0-18.174,7.394-34.655,19.332-46.592C678.141,57.394,694.622,50,712.798,50s34.657,7.394,46.595,19.331
			c11.938,11.937,19.332,28.418,19.332,46.592v484.074v484.074c0,18.177-7.394,34.659-19.332,46.597
			C747.455,1142.606,730.973,1150,712.798,1150z M712.798,79.838c-9.949,0-18.971,4.047-25.506,10.582
			c-6.535,6.534-10.582,15.556-10.582,25.504v484.074v484.074c0,9.951,4.047,18.974,10.582,25.509
			c6.535,6.535,15.557,10.582,25.506,10.582c9.949,0,18.971-4.047,25.506-10.582c6.535-6.535,10.582-15.558,10.582-25.509V599.997
			V115.924c0-9.948-4.047-18.969-10.582-25.504C731.769,83.885,722.747,79.838,712.798,79.838z"/>
	</g>
	<g opacity="0.2">
		<path fill="#2E4C59" d="M716.724,934.553h-3.927h-3.927c-13.001,0-24.771-5.27-33.291-13.79
			c-8.52-8.52-13.789-20.29-13.789-33.291V499.735V111.997c0-13.001,5.27-24.771,13.789-33.291c8.52-8.52,20.29-13.79,33.291-13.79
			h3.927h3.927c13.001,0,24.771,5.27,33.291,13.79c8.52,8.52,13.79,20.29,13.79,33.291v387.738v387.738
			c0,13.001-5.27,24.771-13.79,33.291C741.495,929.283,729.725,934.553,716.724,934.553z"/>
		<path fill="#2E4C59" d="M712.798,949.473c-18.175,0-34.657-7.394-46.595-19.332c-11.938-11.938-19.332-28.42-19.332-46.597
			v-383.81v-383.81c0-18.174,7.394-34.655,19.332-46.592C678.141,57.394,694.622,50,712.798,50s34.657,7.394,46.595,19.331
			c11.938,11.937,19.332,28.418,19.332,46.592v383.81v383.81c0,18.177-7.394,34.659-19.332,46.597
			C747.455,942.079,730.973,949.473,712.798,949.473z M712.798,79.838c-9.949,0-18.971,4.047-25.506,10.582
			c-6.535,6.534-10.582,15.556-10.582,25.504v383.81v383.81c0,9.951,4.047,18.974,10.582,25.509s15.557,10.582,25.506,10.582
			c9.949,0,18.971-4.047,25.506-10.582c6.535-6.535,10.582-15.558,10.582-25.509v-383.81v-383.81
			c0-9.948-4.047-18.969-10.582-25.504C731.769,83.885,722.747,79.838,712.798,79.838z"/>
	</g>
	<g>
		<path fill="#EAEEEF" d="M942.319,1135.078h-3.927h-3.927c-13.001,0-24.771-5.27-33.291-13.79c-8.52-8.52-13.79-20.29-13.79-33.291
			v-488v-488c0-13.001,5.27-24.771,13.79-33.291c8.52-8.52,20.29-13.79,33.291-13.79h3.927h3.927c13.001,0,24.771,5.27,33.291,13.79
			c8.52,8.52,13.789,20.29,13.789,33.291v488v488c0,13.001-5.27,24.771-13.789,33.291
			C967.09,1129.809,955.32,1135.078,942.319,1135.078z"/>
		<path fill="#2E4C59" d="M938.393,1150c-18.175,0-34.657-7.394-46.595-19.332c-11.938-11.938-19.332-28.42-19.332-46.597V599.997
			V115.924c0-18.174,7.394-34.655,19.332-46.592C903.736,57.394,920.218,50,938.393,50s34.657,7.394,46.595,19.331
			s19.332,28.418,19.332,46.592v484.074v484.074c0,18.177-7.394,34.659-19.332,46.597C973.05,1142.606,956.568,1150,938.393,1150z
			 M938.393,79.838c-9.949,0-18.971,4.047-25.506,10.582c-6.535,6.534-10.582,15.556-10.582,25.504v484.074v484.074
			c0,9.951,4.047,18.974,10.582,25.509c6.535,6.535,15.557,10.582,25.506,10.582c9.949,0,18.972-4.047,25.506-10.582
			c6.535-6.535,10.582-15.558,10.582-25.509V599.997V115.924c0-9.948-4.047-18.969-10.582-25.504
			C957.364,83.885,948.342,79.838,938.393,79.838z"/>
	</g>
	<g opacity="0.2">
		<path fill="#2E4C59" d="M942.319,758.419h-3.927h-3.927c-13.001,0-24.771-5.27-33.291-13.79c-8.52-8.52-13.79-20.29-13.79-33.291
			V411.668V111.997c0-13.001,5.27-24.771,13.79-33.291c8.52-8.52,20.29-13.79,33.291-13.79h3.927h3.927
			c13.001,0,24.771,5.27,33.291,13.79c8.52,8.52,13.789,20.29,13.789,33.291v299.671v299.671c0,13.001-5.27,24.771-13.789,33.291
			C967.09,753.15,955.32,758.419,942.319,758.419z"/>
		<path fill="#2E4C59" d="M938.393,773.341c-18.175,0-34.657-7.394-46.595-19.332c-11.938-11.938-19.332-28.42-19.332-46.597
			V411.667V115.924c0-18.174,7.394-34.655,19.332-46.592C903.736,57.394,920.218,50,938.393,50s34.657,7.394,46.595,19.331
			s19.332,28.418,19.332,46.592v295.744v295.744c0,18.177-7.394,34.659-19.332,46.597
			C973.05,765.947,956.568,773.341,938.393,773.341z M938.393,79.838c-9.949,0-18.971,4.047-25.506,10.582
			c-6.535,6.534-10.582,15.556-10.582,25.504v295.744v295.744c0,9.951,4.047,18.974,10.582,25.509s15.557,10.582,25.506,10.582
			c9.949,0,18.972-4.047,25.506-10.582s10.582-15.558,10.582-25.509V411.667V115.924c0-9.948-4.047-18.969-10.582-25.504
			C957.364,83.885,948.342,79.838,938.393,79.838z"/>
	</g>
	<path fill="#2E4C59" d="M261.604,1098.99c-4.12,0-7.85-1.67-10.55-4.369s-4.369-6.43-4.369-10.55V599.997V115.924
		c0-4.12,1.67-7.85,4.369-10.55s6.429-4.369,10.55-4.369s7.85,1.67,10.55,4.369s4.369,6.429,4.369,10.55v484.074v484.074
		c0,4.12-1.67,7.85-4.369,10.55S265.724,1098.99,261.604,1098.99z"/>
	<path fill="#2E4C59" d="M487.202,1098.99c-4.12,0-7.85-1.67-10.55-4.369s-4.369-6.43-4.369-10.55V599.997V115.924
		c0-4.12,1.67-7.85,4.369-10.55s6.429-4.369,10.55-4.369c4.12,0,7.85,1.67,10.55,4.369s4.369,6.429,4.369,10.55v484.074v484.074
		c0,4.12-1.67,7.85-4.369,10.55S491.323,1098.99,487.202,1098.99z"/>
	<path fill="#2E4C59" d="M712.798,1098.99c-4.12,0-7.85-1.67-10.55-4.369s-4.369-6.43-4.369-10.55V599.997V115.924
		c0-4.12,1.67-7.85,4.369-10.55s6.429-4.369,10.55-4.369s7.85,1.67,10.55,4.369s4.369,6.429,4.369,10.55v484.074v484.074
		c0,4.12-1.67,7.85-4.369,10.55S716.918,1098.99,712.798,1098.99z"/>
	<path fill="#2E4C59" d="M938.393,1098.99c-4.12,0-7.85-1.67-10.55-4.369s-4.369-6.43-4.369-10.55V599.997V115.924
		c0-4.12,1.67-7.85,4.369-10.55s6.43-4.369,10.55-4.369c4.12,0,7.85,1.67,10.55,4.369s4.369,6.429,4.369,10.55v484.074v484.074
		c0,4.12-1.67,7.85-4.369,10.55S942.513,1098.99,938.393,1098.99z"/>
	<g>
		<g>
			<path fill="#ABE1ED" d="M173.916,204.109v28.433v28.433c0,18.164,9.815,34.609,25.684,46.513
				c15.869,11.904,37.791,19.266,62.005,19.266c24.215,0,46.137-7.362,62.006-19.266c15.869-11.904,25.684-28.348,25.684-46.513
				v-28.433v-28.433h-87.689H173.916z"/>
			<path fill="#2E4C59" d="M261.604,341.673c-28.289,0-53.941-9.05-72.52-23.663s-30.086-34.787-30.086-57.034v-28.434v-28.434
				c0-4.12,1.67-7.85,4.369-10.55s6.429-4.369,10.55-4.369h87.689h87.689c4.12,0,7.85,1.67,10.55,4.369s4.369,6.429,4.369,10.55
				v28.434v28.434c0,22.247-11.508,42.422-30.088,57.034C315.546,332.623,289.894,341.673,261.604,341.673z M188.836,219.028v20.974
				v20.974c0,13.786,8.331,26.5,21.592,35.769c13.261,9.268,31.453,15.09,51.176,15.09s37.915-5.822,51.177-15.09
				c13.262-9.268,21.594-21.983,21.594-35.769v-20.974v-20.974h-72.77H188.836z"/>
		</g>
		<g>
			<g opacity="0.2">
				<path fill="#2E4C59" d="M173.916,204.109v28.433v28.433c0,18.164,9.815,34.609,25.684,46.513
					c15.869,11.904,37.791,19.266,62.005,19.266c24.215,0,46.137-7.362,62.006-19.266c15.869-11.904,25.684-28.348,25.684-46.513
					v-28.433v-28.433h-87.689H173.916z"/>
				<path fill="#2E4C59" d="M261.604,341.673c-28.289,0-53.941-9.05-72.52-23.663s-30.086-34.787-30.086-57.034v-28.434v-28.434
					c0-4.12,1.67-7.85,4.369-10.55s6.429-4.369,10.55-4.369h87.689h87.689c4.12,0,7.85,1.67,10.55,4.369s4.369,6.429,4.369,10.55
					v28.434v28.434c0,22.247-11.508,42.422-30.088,57.034C315.546,332.623,289.894,341.673,261.604,341.673z M188.836,219.028
					v20.974v20.974c0,13.786,8.331,26.5,21.592,35.769c13.261,9.268,31.453,15.09,51.176,15.09s37.915-5.822,51.177-15.09
					c13.262-9.268,21.594-21.983,21.594-35.769v-20.974v-20.974h-72.77H188.836z"/>
			</g>
			<g>
				<path fill="#ABE1ED" d="M349.294,204.109c0,18.164-9.815,34.609-25.684,46.513c-15.869,11.904-37.791,19.266-62.006,19.266
					s-46.137-7.363-62.006-19.266c-15.869-11.904-25.684-28.348-25.684-46.513s9.815-34.609,25.684-46.513
					c15.869-11.904,37.791-19.266,62.006-19.266s46.137,7.363,62.006,19.266C339.479,169.5,349.294,185.945,349.294,204.109z"/>
				<path fill="#2E4C59" d="M261.604,284.806c-28.289,0-53.941-9.051-72.52-23.663s-30.086-34.787-30.086-57.034
					s11.507-42.422,30.086-57.034c18.579-14.612,44.231-23.663,72.52-23.663s53.942,9.051,72.522,23.663
					c18.58,14.612,30.088,34.787,30.088,57.034s-11.508,42.422-30.088,57.034C315.546,275.755,289.894,284.806,261.604,284.806z
					 M261.604,153.25c-19.723,0-37.915,5.822-51.176,15.09c-13.261,9.268-21.592,21.983-21.592,35.769
					c0,13.786,8.331,26.5,21.592,35.769c13.261,9.268,31.453,15.09,51.176,15.09s37.915-5.822,51.177-15.09
					c13.262-9.268,21.594-21.983,21.594-35.769c0-13.786-8.332-26.5-21.594-35.769C299.52,159.072,281.327,153.25,261.604,153.25z"
					/>
			</g>
		</g>
	</g>
	<g>
		<g>
			<path fill="#ABE1ED" d="M625.108,761.828v28.433v28.433c0,18.164,9.815,34.609,25.684,46.513
				c15.869,11.904,37.791,19.266,62.005,19.266c24.215,0,46.137-7.362,62.006-19.266c15.869-11.904,25.684-28.348,25.684-46.513
				v-28.433v-28.433h-87.689H625.108z"/>
			<path fill="#2E4C59" d="M712.798,899.389c-28.289,0-53.942-9.051-72.522-23.663c-18.58-14.612-30.088-34.787-30.088-57.034
				v-28.431v-28.431c0-4.12,1.67-7.85,4.369-10.55s6.429-4.369,10.55-4.369h87.689h87.689c4.12,0,7.85,1.67,10.55,4.369
				s4.369,6.429,4.369,10.55v28.431v28.431c0,22.247-11.507,42.422-30.086,57.034S741.087,899.389,712.798,899.389z M640.026,776.75
				v20.971v20.971c0,13.786,8.331,26.5,21.594,35.769s31.455,15.09,51.177,15.09s37.915-5.822,51.176-15.09
				s21.592-21.983,21.592-35.769v-20.971V776.75h-72.77H640.026z"/>
		</g>
		<g>
			<g opacity="0.2">
				<path fill="#2E4C59" d="M625.108,761.828v28.433v28.433c0,18.164,9.815,34.609,25.684,46.513
					c15.869,11.904,37.791,19.266,62.005,19.266c24.215,0,46.137-7.362,62.006-19.266c15.869-11.904,25.684-28.348,25.684-46.513
					v-28.433v-28.433h-87.689H625.108z"/>
				<path fill="#2E4C59" d="M712.798,899.389c-28.289,0-53.942-9.051-72.522-23.663c-18.58-14.612-30.088-34.787-30.088-57.034
					v-28.431v-28.431c0-4.12,1.67-7.85,4.369-10.55s6.429-4.369,10.55-4.369h87.689h87.689c4.12,0,7.85,1.67,10.55,4.369
					s4.369,6.429,4.369,10.55v28.431v28.431c0,22.247-11.507,42.422-30.086,57.034S741.087,899.389,712.798,899.389z
					 M640.026,776.75v20.971v20.971c0,13.786,8.331,26.5,21.594,35.769s31.455,15.09,51.177,15.09s37.915-5.822,51.176-15.09
					s21.592-21.983,21.592-35.769v-20.971V776.75h-72.77H640.026z"/>
			</g>
			<g>
				<path fill="#ABE1ED" d="M800.486,761.828c0,18.164-9.815,34.609-25.684,46.513c-15.869,11.904-37.791,19.266-62.005,19.266
					c-24.215,0-46.137-7.363-62.006-19.266c-15.869-11.904-25.684-28.348-25.684-46.513s9.815-34.609,25.684-46.513
					c15.869-11.904,37.791-19.266,62.006-19.266c24.215,0,46.137,7.363,62.005,19.266
					C790.671,727.219,800.486,743.664,800.486,761.828z"/>
				<path fill="#2E4C59" d="M712.798,842.528c-28.289,0-53.942-9.051-72.522-23.663c-18.58-14.612-30.088-34.787-30.088-57.034
					c0-22.25,11.508-42.426,30.088-57.039c18.58-14.613,44.232-23.664,72.522-23.664s53.941,9.05,72.52,23.664
					s30.086,34.789,30.086,57.039c0,22.247-11.507,42.422-30.086,57.034C766.739,833.477,741.087,842.528,712.798,842.528z
					 M712.798,710.966c-19.723,0-37.915,5.823-51.177,15.093s-21.594,21.986-21.594,35.771s8.331,26.5,21.594,35.769
					s31.455,15.09,51.177,15.09s37.915-5.822,51.176-15.09s21.592-21.983,21.592-35.769s-8.331-26.502-21.592-35.771
					S732.52,710.966,712.798,710.966z"/>
			</g>
		</g>
	</g>
	<g>
		<g>
			<path fill="#FDE9A4" d="M399.512,387.301v28.433v28.433c0,18.164,9.815,34.609,25.684,46.513
				c15.869,11.904,37.791,19.266,62.005,19.266c24.215,0,46.137-7.362,62.006-19.266c15.869-11.904,25.684-28.348,25.684-46.513
				v-28.433v-28.433h-87.689H399.512z"/>
			<path fill="#2E4C59" d="M487.199,524.863c-28.289,0-53.941-9.051-72.52-23.663c-18.579-14.612-30.086-34.787-30.086-57.034
				v-28.434v-28.434c0-4.12,1.67-7.85,4.369-10.55s6.429-4.369,10.55-4.369h87.689h87.689c4.12,0,7.85,1.67,10.55,4.369
				s4.369,6.429,4.369,10.55v28.434v28.434c0,22.247-11.508,42.422-30.088,57.034C541.141,515.812,515.489,524.863,487.199,524.863z
				 M414.431,402.218v20.974v20.974c0,13.786,8.331,26.5,21.592,35.769s31.453,15.09,51.176,15.09
				c19.723,0,37.915-5.822,51.177-15.09s21.594-21.983,21.594-35.769v-20.974v-20.974h-72.77H414.431z"/>
		</g>
		<g>
			<g opacity="0.2">
				<path fill="#2E4C59" d="M399.512,387.301v28.433v28.433c0,18.164,9.815,34.609,25.684,46.513
					c15.869,11.904,37.791,19.266,62.005,19.266c24.215,0,46.137-7.362,62.006-19.266c15.869-11.904,25.684-28.348,25.684-46.513
					v-28.433v-28.433h-87.689H399.512z"/>
				<path fill="#2E4C59" d="M487.199,524.863c-28.289,0-53.941-9.051-72.52-23.663c-18.579-14.612-30.086-34.787-30.086-57.034
					v-28.434v-28.434c0-4.12,1.67-7.85,4.369-10.55s6.429-4.369,10.55-4.369h87.689h87.689c4.12,0,7.85,1.67,10.55,4.369
					s4.369,6.429,4.369,10.55v28.434v28.434c0,22.247-11.508,42.422-30.088,57.034C541.141,515.812,515.489,524.863,487.199,524.863
					z M414.431,402.218v20.974v20.974c0,13.786,8.331,26.5,21.592,35.769s31.453,15.09,51.176,15.09
					c19.723,0,37.915-5.822,51.177-15.09s21.594-21.983,21.594-35.769v-20.974v-20.974h-72.77H414.431z"/>
			</g>
			<g>
				<path fill="#FDE9A4" d="M574.89,387.301c0,18.164-9.815,34.609-25.684,46.513s-37.791,19.266-62.006,19.266
					s-46.137-7.363-62.006-19.266c-15.869-11.904-25.684-28.348-25.684-46.513s9.815-34.609,25.684-46.513
					c15.869-11.904,37.791-19.266,62.006-19.266s46.137,7.363,62.006,19.266S574.89,369.137,574.89,387.301z"/>
				<path fill="#2E4C59" d="M487.202,468.001c-28.289,0-53.942-9.051-72.522-23.664c-18.58-14.613-30.088-34.789-30.088-57.039
					c0-22.247,11.508-42.422,30.088-57.034c18.58-14.612,44.232-23.663,72.522-23.663s53.941,9.051,72.52,23.663
					c18.579,14.612,30.086,34.787,30.086,57.034c0,22.25-11.507,42.426-30.086,57.039
					C541.143,458.951,515.492,468.001,487.202,468.001z M487.202,336.44c-19.723,0-37.915,5.822-51.178,15.09
					s-21.594,21.983-21.594,35.769s8.331,26.502,21.594,35.771s31.455,15.093,51.178,15.093s37.915-5.823,51.176-15.093
					s21.592-21.986,21.592-35.771s-8.331-26.5-21.592-35.769S506.925,336.44,487.202,336.44z"/>
			</g>
		</g>
	</g>
	<g>
		<g>
			<path fill="#FDE9A4" d="M850.703,576.406v28.433v28.433c0,18.164,9.815,34.609,25.684,46.513
				c15.869,11.904,37.791,19.266,62.005,19.266c24.215,0,46.137-7.362,62.006-19.266c15.869-11.904,25.684-28.348,25.684-46.513
				v-28.433v-28.433h-87.689H850.703z"/>
			<path fill="#2E4C59" d="M938.393,713.968c-28.289,0-53.942-9.05-72.522-23.663c-18.58-14.612-30.088-34.787-30.088-57.034
				v-28.434v-28.434c0-4.12,1.67-7.85,4.369-10.55s6.429-4.369,10.55-4.369h87.69h87.69c4.12,0,7.85,1.67,10.55,4.369
				s4.369,6.429,4.369,10.55v28.434v28.434c0,22.247-11.508,42.422-30.088,57.034C992.335,704.917,966.682,713.968,938.393,713.968z
				 M865.622,591.322v20.974v20.974c0,13.786,8.331,26.5,21.594,35.769s31.455,15.09,51.177,15.09
				c19.723,0,37.915-5.822,51.177-15.09c13.262-9.268,21.594-21.983,21.594-35.769v-20.974v-20.974h-72.771H865.622z"/>
		</g>
		<g>
			<g opacity="0.2">
				<path fill="#2E4C59" d="M850.703,576.406v28.433v28.433c0,18.164,9.815,34.609,25.684,46.513
					c15.869,11.904,37.791,19.266,62.005,19.266c24.215,0,46.137-7.362,62.006-19.266c15.869-11.904,25.684-28.348,25.684-46.513
					v-28.433v-28.433h-87.689H850.703z"/>
				<path fill="#2E4C59" d="M938.393,713.968c-28.289,0-53.942-9.05-72.522-23.663c-18.58-14.612-30.088-34.787-30.088-57.034
					v-28.434v-28.434c0-4.12,1.67-7.85,4.369-10.55s6.429-4.369,10.55-4.369h87.69h87.69c4.12,0,7.85,1.67,10.55,4.369
					s4.369,6.429,4.369,10.55v28.434v28.434c0,22.247-11.508,42.422-30.088,57.034C992.335,704.917,966.682,713.968,938.393,713.968
					z M865.622,591.322v20.974v20.974c0,13.786,8.331,26.5,21.594,35.769s31.455,15.09,51.177,15.09
					c19.723,0,37.915-5.822,51.177-15.09c13.262-9.268,21.594-21.983,21.594-35.769v-20.974v-20.974h-72.771H865.622z"/>
			</g>
			<g>
				<path fill="#FDE9A4" d="M1026.082,576.406c0,18.164-9.815,34.609-25.684,46.513c-15.869,11.904-37.791,19.266-62.005,19.266
					s-46.137-7.363-62.006-19.266c-15.869-11.904-25.684-28.348-25.684-46.513s9.815-34.609,25.684-46.513
					c15.869-11.904,37.791-19.266,62.006-19.266s46.137,7.363,62.005,19.266C1016.267,541.797,1026.082,558.242,1026.082,576.406z"
					/>
				<path fill="#2E4C59" d="M938.393,657.106c-28.289,0-53.942-9.05-72.522-23.664c-18.58-14.613-30.088-34.789-30.088-57.039
					c0-22.247,11.508-42.422,30.088-57.034c18.58-14.612,44.232-23.663,72.522-23.663s53.942,9.051,72.522,23.663
					c18.58,14.612,30.088,34.787,30.088,57.034c0,22.25-11.508,42.426-30.088,57.039
					C992.335,648.056,966.682,657.106,938.393,657.106z M938.393,525.545c-19.723,0-37.915,5.822-51.177,15.09
					s-21.594,21.983-21.594,35.769c0,13.786,8.331,26.502,21.594,35.771s31.455,15.093,51.177,15.093
					c19.723,0,37.915-5.823,51.177-15.093c13.262-9.27,21.594-21.986,21.594-35.771c0-13.786-8.332-26.5-21.594-35.769
					C976.308,531.367,958.115,525.545,938.393,525.545z"/>
			</g>
		</g>
	</g>
</g>
</svg>
